<mxfile host="app.diagrams.net" agent="Mozilla/5.0 (Macintosh; Intel Mac OS X 10_15_7) AppleWebKit/537.36 (KHTML, like Gecko) Chrome/134.0.0.0 Safari/537.36" version="26.2.13">
  <diagram name="Page-1" id="lRxQwd0rOlLGwh3QVn5y">
    <mxGraphModel dx="1020" dy="627" grid="1" gridSize="10" guides="1" tooltips="1" connect="1" arrows="1" fold="1" page="1" pageScale="1" pageWidth="827" pageHeight="1169" math="0" shadow="0">
      <root>
        <mxCell id="0" />
        <mxCell id="1" parent="0" />
        <mxCell id="LmUohwAdHmwc-d6qP1Fo-2" value="Front-load&amp;nbsp;&lt;br&gt;Catalog" style="sketch=0;outlineConnect=0;fontColor=#232F3E;gradientColor=none;fillColor=#ED7100;strokeColor=none;dashed=0;verticalLabelPosition=bottom;verticalAlign=top;align=center;html=1;fontSize=12;fontStyle=0;aspect=fixed;pointerEvents=1;shape=mxgraph.aws4.lambda_function;" vertex="1" parent="1">
          <mxGeometry x="195" y="260" width="48" height="48" as="geometry" />
        </mxCell>
        <mxCell id="LmUohwAdHmwc-d6qP1Fo-4" value="Product Catalog&lt;br&gt;(DynamoDB)" style="sketch=0;points=[[0,0,0],[0.25,0,0],[0.5,0,0],[0.75,0,0],[1,0,0],[0,1,0],[0.25,1,0],[0.5,1,0],[0.75,1,0],[1,1,0],[0,0.25,0],[0,0.5,0],[0,0.75,0],[1,0.25,0],[1,0.5,0],[1,0.75,0]];outlineConnect=0;fontColor=#232F3E;fillColor=#C925D1;strokeColor=#ffffff;dashed=0;verticalLabelPosition=bottom;verticalAlign=top;align=center;html=1;fontSize=12;fontStyle=0;aspect=fixed;shape=mxgraph.aws4.resourceIcon;resIcon=mxgraph.aws4.dynamodb;" vertex="1" parent="1">
          <mxGeometry x="431" y="255" width="58" height="58" as="geometry" />
        </mxCell>
        <mxCell id="LmUohwAdHmwc-d6qP1Fo-5" value="EventBridge" style="sketch=0;points=[[0,0,0],[0.25,0,0],[0.5,0,0],[0.75,0,0],[1,0,0],[0,1,0],[0.25,1,0],[0.5,1,0],[0.75,1,0],[1,1,0],[0,0.25,0],[0,0.5,0],[0,0.75,0],[1,0.25,0],[1,0.5,0],[1,0.75,0]];outlineConnect=0;fontColor=#232F3E;fillColor=#E7157B;strokeColor=#ffffff;dashed=0;verticalLabelPosition=bottom;verticalAlign=top;align=center;html=1;fontSize=12;fontStyle=0;aspect=fixed;shape=mxgraph.aws4.resourceIcon;resIcon=mxgraph.aws4.eventbridge;" vertex="1" parent="1">
          <mxGeometry x="630" y="421" width="58" height="58" as="geometry" />
        </mxCell>
        <mxCell id="LmUohwAdHmwc-d6qP1Fo-6" value="scheduled daily &lt;br&gt;(night)" style="endArrow=classic;html=1;rounded=0;" edge="1" parent="1" source="LmUohwAdHmwc-d6qP1Fo-5" target="LmUohwAdHmwc-d6qP1Fo-16">
          <mxGeometry width="50" height="50" relative="1" as="geometry">
            <mxPoint x="390" y="300" as="sourcePoint" />
            <mxPoint x="440" y="250" as="targetPoint" />
          </mxGeometry>
        </mxCell>
        <mxCell id="LmUohwAdHmwc-d6qP1Fo-7" value="" style="endArrow=classic;html=1;rounded=0;entryX=0.5;entryY=1;entryDx=0;entryDy=0;entryPerimeter=0;" edge="1" parent="1" source="LmUohwAdHmwc-d6qP1Fo-16" target="LmUohwAdHmwc-d6qP1Fo-4">
          <mxGeometry width="50" height="50" relative="1" as="geometry">
            <mxPoint x="390" y="300" as="sourcePoint" />
            <mxPoint x="440" y="250" as="targetPoint" />
          </mxGeometry>
        </mxCell>
        <mxCell id="LmUohwAdHmwc-d6qP1Fo-8" value="query entry changes" style="edgeLabel;html=1;align=center;verticalAlign=middle;resizable=0;points=[];" vertex="1" connectable="0" parent="LmUohwAdHmwc-d6qP1Fo-7">
          <mxGeometry x="0.112" y="-3" relative="1" as="geometry">
            <mxPoint as="offset" />
          </mxGeometry>
        </mxCell>
        <mxCell id="LmUohwAdHmwc-d6qP1Fo-9" value="" style="endArrow=classic;html=1;rounded=0;entryX=1;entryY=0.5;entryDx=0;entryDy=0;entryPerimeter=0;" edge="1" parent="1" source="LmUohwAdHmwc-d6qP1Fo-16" target="LmUohwAdHmwc-d6qP1Fo-15">
          <mxGeometry width="50" height="50" relative="1" as="geometry">
            <mxPoint x="253" y="294" as="sourcePoint" />
            <mxPoint x="441" y="294" as="targetPoint" />
          </mxGeometry>
        </mxCell>
        <mxCell id="LmUohwAdHmwc-d6qP1Fo-10" value="update &lt;br&gt;(`_bulk` API)" style="edgeLabel;html=1;align=center;verticalAlign=middle;resizable=0;points=[];" vertex="1" connectable="0" parent="LmUohwAdHmwc-d6qP1Fo-9">
          <mxGeometry x="0.112" y="-3" relative="1" as="geometry">
            <mxPoint as="offset" />
          </mxGeometry>
        </mxCell>
        <mxCell id="LmUohwAdHmwc-d6qP1Fo-11" value="Purge soft&amp;nbsp;&lt;span style=&quot;background-color: transparent; color: light-dark(rgb(35, 47, 62), rgb(189, 199, 212));&quot;&gt;deleted&lt;/span&gt;" style="sketch=0;outlineConnect=0;fontColor=#232F3E;gradientColor=none;fillColor=#ED7100;strokeColor=none;dashed=0;verticalLabelPosition=bottom;verticalAlign=top;align=center;html=1;fontSize=12;fontStyle=0;aspect=fixed;pointerEvents=1;shape=mxgraph.aws4.lambda_function;" vertex="1" parent="1">
          <mxGeometry x="635" y="260" width="48" height="48" as="geometry" />
        </mxCell>
        <mxCell id="LmUohwAdHmwc-d6qP1Fo-12" value="scheduled weekly&lt;br&gt;(night)" style="endArrow=classic;html=1;rounded=0;" edge="1" parent="1" source="LmUohwAdHmwc-d6qP1Fo-5" target="LmUohwAdHmwc-d6qP1Fo-11">
          <mxGeometry width="50" height="50" relative="1" as="geometry">
            <mxPoint x="229" y="188" as="sourcePoint" />
            <mxPoint x="229" y="270" as="targetPoint" />
          </mxGeometry>
        </mxCell>
        <mxCell id="LmUohwAdHmwc-d6qP1Fo-13" value="" style="endArrow=classic;html=1;rounded=0;entryX=1;entryY=0.5;entryDx=0;entryDy=0;entryPerimeter=0;" edge="1" parent="1" source="LmUohwAdHmwc-d6qP1Fo-11" target="LmUohwAdHmwc-d6qP1Fo-4">
          <mxGeometry width="50" height="50" relative="1" as="geometry">
            <mxPoint x="258" y="159" as="sourcePoint" />
            <mxPoint x="441" y="159" as="targetPoint" />
          </mxGeometry>
        </mxCell>
        <mxCell id="LmUohwAdHmwc-d6qP1Fo-15" value="Amazon &lt;br&gt;OpenSearch" style="sketch=0;points=[[0,0,0],[0.25,0,0],[0.5,0,0],[0.75,0,0],[1,0,0],[0,1,0],[0.25,1,0],[0.5,1,0],[0.75,1,0],[1,1,0],[0,0.25,0],[0,0.5,0],[0,0.75,0],[1,0.25,0],[1,0.5,0],[1,0.75,0]];outlineConnect=0;fontColor=#232F3E;fillColor=#8C4FFF;strokeColor=#ffffff;dashed=0;verticalLabelPosition=bottom;verticalAlign=top;align=center;html=1;fontSize=12;fontStyle=0;aspect=fixed;shape=mxgraph.aws4.resourceIcon;resIcon=mxgraph.aws4.elasticsearch_service;" vertex="1" parent="1">
          <mxGeometry x="190" y="421" width="58" height="58" as="geometry" />
        </mxCell>
        <mxCell id="LmUohwAdHmwc-d6qP1Fo-16" value="Update&amp;nbsp;&lt;div&gt;ElasticSearch&lt;/div&gt;" style="sketch=0;outlineConnect=0;fontColor=#232F3E;gradientColor=none;fillColor=#ED7100;strokeColor=none;dashed=0;verticalLabelPosition=bottom;verticalAlign=top;align=center;html=1;fontSize=12;fontStyle=0;aspect=fixed;pointerEvents=1;shape=mxgraph.aws4.lambda_function;" vertex="1" parent="1">
          <mxGeometry x="436" y="426" width="48" height="48" as="geometry" />
        </mxCell>
        <mxCell id="LmUohwAdHmwc-d6qP1Fo-17" style="edgeStyle=orthogonalEdgeStyle;rounded=0;orthogonalLoop=1;jettySize=auto;html=1;entryX=0.5;entryY=0;entryDx=0;entryDy=0;entryPerimeter=0;" edge="1" parent="1" source="LmUohwAdHmwc-d6qP1Fo-2" target="LmUohwAdHmwc-d6qP1Fo-15">
          <mxGeometry relative="1" as="geometry" />
        </mxCell>
        <mxCell id="LmUohwAdHmwc-d6qP1Fo-18" value="load" style="edgeStyle=orthogonalEdgeStyle;rounded=0;orthogonalLoop=1;jettySize=auto;html=1;entryX=0;entryY=0.5;entryDx=0;entryDy=0;entryPerimeter=0;" edge="1" parent="1" source="LmUohwAdHmwc-d6qP1Fo-2" target="LmUohwAdHmwc-d6qP1Fo-4">
          <mxGeometry relative="1" as="geometry" />
        </mxCell>
      </root>
    </mxGraphModel>
  </diagram>
</mxfile>
